<svg width="98" height="98" viewBox="0 0 98 98" fill="none" xmlns="http://www.w3.org/2000/svg">
<g filter="url(#filter0_d_1_202)">
<circle cx="49" cy="45" r="45" fill="#114B5F"/>
<path d="M50.129 38.8486C51.6058 38.8486 53.0221 39.4353 54.0664 40.4795C55.1106 41.5238 55.6973 42.9401 55.6973 44.4169C55.6973 44.9091 55.8928 45.3812 56.2409 45.7293C56.589 46.0774 57.0611 46.273 57.5534 46.273C58.0456 46.273 58.5177 46.0774 58.8658 45.7293C59.2139 45.3812 59.4094 44.9091 59.4094 44.4169C59.4094 41.9556 58.4317 39.5951 56.6913 37.8546C54.9509 36.1142 52.5903 35.1365 50.129 35.1365C49.6368 35.1365 49.1647 35.332 48.8166 35.6801C48.4685 36.0282 48.2729 36.5003 48.2729 36.9926C48.2729 37.4848 48.4685 37.9569 48.8166 38.305C49.1647 38.6531 49.6368 38.8486 50.129 38.8486Z" fill="#E4FDE1"/>
<path d="M50.129 31.4243C53.5749 31.4243 56.8796 32.7932 59.3162 35.2298C61.7527 37.6663 63.1216 40.971 63.1216 44.4169C63.1216 44.9092 63.3171 45.3813 63.6652 45.7293C64.0133 46.0774 64.4854 46.273 64.9777 46.273C65.4699 46.273 65.942 46.0774 66.2901 45.7293C66.6382 45.3813 66.8338 44.9092 66.8338 44.4169C66.8338 39.9865 65.0738 35.7376 61.9411 32.6049C58.8083 29.4721 54.5594 27.7122 50.129 27.7122C49.6368 27.7122 49.1647 27.9077 48.8166 28.2558C48.4685 28.6039 48.2729 29.076 48.2729 29.5682C48.2729 30.0605 48.4685 30.5326 48.8166 30.8807C49.1647 31.2288 49.6368 31.4243 50.129 31.4243Z" fill="#E4FDE1"/>
<path d="M66.3698 53.5302C66.2677 53.2323 66.0914 52.9652 65.8576 52.7541C65.6239 52.5431 65.3402 52.395 65.0334 52.3238L53.8969 49.781C53.5946 49.7124 53.28 49.7207 52.9817 49.805C52.6834 49.8893 52.411 50.0469 52.1893 50.2635C51.9294 50.5048 51.9109 50.5234 50.7044 52.8249C46.7012 50.9803 43.4935 47.7594 41.6653 43.7487C44.0225 42.5608 44.0411 42.5608 44.2824 42.2824C44.499 42.0607 44.6567 41.7883 44.741 41.49C44.8253 41.1917 44.8335 40.8771 44.765 40.5748L42.2221 29.5682C42.151 29.2614 42.0029 28.9778 41.7918 28.744C41.5807 28.5102 41.3137 28.3339 41.0157 28.2319C40.5822 28.077 40.1346 27.9651 39.6793 27.8978C39.2102 27.789 38.7315 27.7268 38.2501 27.7122C35.9857 27.7122 33.8141 28.6117 32.2129 30.2129C30.6117 31.8141 29.7122 33.9857 29.7122 36.2501C29.722 43.828 32.7366 51.0926 38.095 56.451C43.4533 61.8093 50.718 64.824 58.2958 64.8338C59.417 64.8338 60.5273 64.6129 61.5631 64.1839C62.599 63.7548 63.5402 63.1259 64.3331 62.3331C65.1259 61.5402 65.7548 60.599 66.1839 59.5631C66.6129 58.5273 66.8338 57.417 66.8338 56.2958C66.8344 55.8234 66.7971 55.3517 66.7224 54.8852C66.6444 54.4242 66.5264 53.9708 66.3698 53.5302Z" fill="#E4FDE1"/>
</g>
<defs>
<filter id="filter0_d_1_202" x="0" y="0" width="98" height="98" filterUnits="userSpaceOnUse" color-interpolation-filters="sRGB">
<feFlood flood-opacity="0" result="BackgroundImageFix"/>
<feColorMatrix in="SourceAlpha" type="matrix" values="0 0 0 0 0 0 0 0 0 0 0 0 0 0 0 0 0 0 127 0" result="hardAlpha"/>
<feOffset dy="4"/>
<feGaussianBlur stdDeviation="2"/>
<feComposite in2="hardAlpha" operator="out"/>
<feColorMatrix type="matrix" values="0 0 0 0 0 0 0 0 0 0 0 0 0 0 0 0 0 0 0.25 0"/>
<feBlend mode="normal" in2="BackgroundImageFix" result="effect1_dropShadow_1_202"/>
<feBlend mode="normal" in="SourceGraphic" in2="effect1_dropShadow_1_202" result="shape"/>
</filter>
</defs>
</svg>
